HIERARCHY
ROOT Hips
{
	OFFSET 0.000000 0.000000 0.000000
	CHANNELS 6 Xposition Yposition Zposition Zrotation Yrotation Xrotation 
	JOINT LHipJoint
	{
		OFFSET 0.000000 0.000000 0.000000
		CHANNELS 3 Zrotation Yrotation Xrotation
		JOINT LeftUpLeg
		{
			OFFSET 1.363060 -1.794630 0.839290
			CHANNELS 3 Zrotation Yrotation Xrotation
			JOINT LeftLeg
			{
				OFFSET 2.448110 -6.726130 0.000000
				CHANNELS 3 Zrotation Yrotation Xrotation
				JOINT LeftFoot
				{
					OFFSET 2.562200 -7.039590 0.000000
					CHANNELS 3 Zrotation Yrotation Xrotation
					JOINT LeftToeBase
					{
						OFFSET 0.157640 -0.433110 2.322550
						CHANNELS 3 Zrotation Yrotation Xrotation
						End Site
						{
							OFFSET 0.000000 0.000000 0.000000
						}
					}
				}
			}
		}
	}
	JOINT RHipJoint
	{
		OFFSET 0.000000 0.000000 0.000000
		CHANNELS 3 Zrotation Yrotation Xrotation
		JOINT RightUpLeg
		{
			OFFSET -1.305520 -1.794630 0.839290
			CHANNELS 3 Zrotation Yrotation Xrotation
			JOINT RightLeg
			{
				OFFSET -2.542530 -6.985550 0.000000
				CHANNELS 3 Zrotation Yrotation Xrotation
				JOINT RightFoot
				{
					OFFSET -2.568260 -7.056230 0.000000
					CHANNELS 3 Zrotation Yrotation Xrotation
					JOINT RightToeBase
					{
						OFFSET -0.164730 -0.452590 2.363150
						CHANNELS 3 Zrotation Yrotation Xrotation
						End Site
						{
							OFFSET 0.000000 0.000000 0.000000
						}
					}
				}
			}
		}
	}
}
MOTION
Frames: 19
Frame Time: 0.008333
2.609564 16.759298 -3.134811 108.334285 -77.205521 -112.868774 -2.914051 -6.565574 2.405555 4.231004 -4.262635 -107.898772 -3.676602 -2.376684 -3.266635 0.772218 7.581451 11.712433 3.851100 -0.000001 -47.364000 12.868201 3.896383 -8.940271 -0.943155 -1.500169 -2.922112 0.731170 -3.438095 32.323796 -1.955834 -7.619299 -14.581679 0.739600 -0.000000 -49.015801
2.629234 16.766231 -3.135588 108.799013 -77.079204 -113.500094 -3.085256 -6.542413 2.182896 3.945674 -4.496426 -106.901281 -3.520727 -1.651744 0.156126 0.600280 7.073310 15.817010 4.047900 -0.000000 -50.745200 12.925370 3.823251 -8.729452 -1.107599 -1.612850 -3.052684 0.722926 -3.401925 32.169232 -1.891320 -7.332734 -14.354947 0.688900 0.000000 -49.268199
2.650124 16.772715 -3.138119 109.207013 -76.934622 -114.193752 -3.234346 -6.544099 1.828748 3.318261 -4.755352 -105.620250 -3.333606 -0.944065 3.595714 0.398251 5.950662 20.210594 3.818300 -0.000000 -51.586099 12.974441 3.743392 -8.520963 -1.248920 -1.655347 -2.992205 0.709788 -3.368917 31.951878 -1.843943 -7.129465 -14.126506 0.644400 -0.000000 -49.374800
2.671472 16.779344 -3.141874 109.514028 -76.786576 -114.856593 -3.352069 -6.571638 1.413566 2.694666 -4.968267 -103.916612 -3.082856 -0.351698 6.680032 0.258171 4.597536 24.384649 3.249900 0.000001 -49.999500 13.007861 3.663346 -8.329071 -1.360062 -1.644086 -2.776118 0.692906 -3.337526 31.667973 -1.813280 -7.007014 -13.899736 0.605701 0.000000 -49.347100
2.692563 16.786734 -3.146136 109.648961 -76.662881 -115.358828 -3.443958 -6.609612 1.004202 2.239192 -5.183348 -101.835893 -2.794628 0.086558 9.279094 0.207430 3.305514 27.941886 2.523800 0.000001 -47.132700 13.023597 3.587514 -8.161173 -1.433529 -1.610259 -2.470700 0.674383 -3.304762 31.321313 -1.797153 -6.954683 -13.677633 0.572000 0.000000 -49.209901
2.712508 16.795497 -3.150271 109.570640 -76.594205 -115.609110 -3.526918 -6.637935 0.642302 1.939053 -5.487158 -99.547476 -2.508448 0.392530 11.499625 0.225400 2.234629 30.644807 1.812400 0.000001 -44.176100 13.020859 3.514643 -8.014814 -1.453789 -1.579072 -2.141673 0.656826 -3.266996 30.915233 -1.793574 -6.963257 -13.460814 0.542400 -0.000000 -48.995400
2.730457 16.806376 -3.153846 109.235233 -76.601879 -115.522731 -3.614905 -6.641366 0.354746 1.764359 -5.947289 -97.202338 -2.240081 0.602506 13.471396 0.290739 1.546569 32.489808 1.294300 0.000000 -42.219000 13.003915 3.443331 -7.883379 -1.423186 -1.580494 -1.851080 0.641637 -3.221013 30.456375 -1.798722 -7.014850 -13.245996 0.515100 0.000000 -48.749600
2.745831 16.819714 -3.156694 108.653828 -76.690037 -115.098533 -3.716717 -6.608999 0.139856 1.577920 -6.580155 -94.959213 -2.001759 0.762717 15.421673 0.372968 1.219176 33.470618 1.005000 -0.000000 -41.119000 12.975033 3.368980 -7.755501 -1.339566 -1.622505 -1.630490 0.629472 -3.164418 29.946279 -1.809935 -7.097607 -13.027448 0.488500 0.000000 -48.517600
2.758066 16.835840 -3.158812 107.847733 -76.843941 -114.357562 -3.831711 -6.539125 -0.007676 1.324161 -7.364042 -92.866103 -1.785412 0.896673 17.438707 0.467953 1.286610 33.789953 0.985900 -0.000001 -41.449500 12.941334 3.290703 -7.623014 -1.225434 -1.714870 -1.494454 0.619552 -3.096657 29.389968 -1.822317 -7.188003 -12.797790 0.460101 0.000000 -48.353000
2.766825 16.854639 -3.160233 106.903114 -77.038691 -113.406437 -3.958326 -6.434865 -0.109103 0.907752 -8.233369 -90.944477 -1.588883 1.025072 19.624958 0.567469 1.655936 33.569330 1.174000 -0.000001 -42.764799 12.904968 3.205516 -7.477491 -1.090205 -1.844098 -1.428890 0.611312 -3.018404 28.787306 -1.832999 -7.272436 -12.549560 0.428300 0.000000 -48.297100
2.771700 16.875861 -3.160704 105.939867 -77.250147 -112.389041 -4.095575 -6.305598 -0.184636 0.297318 -9.108674 -89.152015 -1.405275 1.155174 21.985963 0.673803 2.257365 32.999349 1.511400 -0.000000 -44.874500 12.866028 3.111112 -7.314175 -0.943186 -1.992497 -1.409722 0.604799 -2.931717 28.139951 -1.839405 -7.338122 -12.277466 0.391700 0.000000 -48.382100
2.772486 16.899007 -3.160241 105.075104 -77.456376 -111.444112 -4.243742 -6.162040 -0.249636 -0.492021 -9.915276 -87.421291 -1.229581 1.286641 24.464943 0.790479 3.025045 32.268051 1.943400 0.000000 -47.461000 12.823549 3.006152 -7.131083 -0.788161 -2.142398 -1.413520 0.600312 -2.839038 27.452277 -1.839932 -7.376598 -11.980805 0.350101 -0.000000 -48.626300
2.769099 16.923582 -3.158881 104.391740 -77.645094 -110.665231 -4.402796 -6.012142 -0.309120 -1.404566 -10.607417 -85.681847 -1.060508 1.413721 26.954755 0.918538 3.904646 31.532345 2.430100 -0.000000 -49.984400 12.779242 2.891334 -6.928470 -0.635183 -2.288697 -1.433275 0.598399 -2.742644 26.735201 -1.832626 -7.376827 -11.665454 0.304400 -0.000000 -49.024300
2.761510 16.948795 -3.155693 104.027342 -77.821730 -110.204143 -4.583006 -5.869727 -0.371784 -2.380526 -11.129086 -83.897028 -0.895695 1.534683 29.401619 1.053398 4.792585 30.900895 2.905900 -0.000001 -52.128800 12.718317 2.762088 -6.709771 -0.450164 -2.403678 -1.444126 0.602205 -2.644835 25.988801 -1.820337 -7.353054 -11.331807 0.255500 0.000001 -49.604000
2.750007 16.974272 -3.151678 103.935060 -77.976623 -110.002986 -4.777555 -5.730819 -0.423107 -3.328284 -11.510347 -82.028676 -0.740332 1.640137 31.669735 1.189809 5.658756 30.446456 3.362299 0.000000 -53.415500 12.653839 2.625610 -6.478629 -0.266395 -2.515886 -1.472605 0.610889 -2.546498 25.237248 -1.799156 -7.282377 -10.999387 0.206300 0.000000 -50.324799
2.734951 16.999517 -3.146827 104.120354 -78.112567 -110.066540 -4.987029 -5.596394 -0.457734 -4.190229 -11.769611 -80.072387 -0.596678 1.727697 33.708412 1.319812 6.436435 30.191665 3.766800 -0.000000 -53.783800 12.585533 2.484407 -6.240684 -0.084662 -2.633314 -1.523338 0.625638 -2.448569 24.492181 -1.768812 -7.160964 -10.681730 0.159600 -0.000000 -51.167500
2.716444 17.024061 -3.140348 104.615442 -78.242907 -110.426934 -5.217946 -5.469864 -0.475211 -4.930849 -11.916288 -78.053006 -0.464525 1.800876 35.542981 1.433453 7.034073 30.096128 4.066800 -0.000000 -53.283100 12.502298 2.336395 -6.001802 0.121376 -2.751090 -1.585340 0.648872 -2.351246 23.751316 -1.731801 -7.001074 -10.380383 0.116300 0.000001 -52.181900
2.695011 17.047747 -3.133406 105.333361 -78.354819 -110.993120 -5.460486 -5.342132 -0.468109 -5.538683 -12.003991 -75.975759 -0.346766 1.858725 37.149509 1.528409 7.455672 30.142844 4.270100 0.000000 -52.218000 12.418381 2.189264 -5.766617 0.316941 -2.900246 -1.674131 0.679266 -2.254509 23.031463 -1.684544 -6.779724 -10.118330 0.080100 0.000000 -53.292901
2.671065 17.070389 -3.125471 106.271516 -78.457379 -111.768487 -5.717232 -5.213947 -0.438986 -6.017090 -12.049752 -73.866500 -0.241048 1.905506 38.580885 1.602977 7.679092 30.282581 4.360800 0.000000 -50.891800 12.326872 2.042260 -5.539741 0.517451 -3.079425 -1.776411 0.718261 -2.157900 22.325326 -1.628821 -6.505166 -9.897194 0.051500 0.000000 -54.512700
